<svg width="50" height="50" viewBox="0 0 50 50" fill="none" xmlns="http://www.w3.org/2000/svg">
<rect width="50" height="50" rx="10" fill="#F020B5"/>
<path d="M19.6322 17.2964C18.9427 17.2964 18.2813 17.5703 17.7937 18.0579C17.3062 18.5455 17.0322 19.2068 17.0322 19.8964C17.0322 20.586 17.3062 21.2473 17.7937 21.7349C18.2813 22.2225 18.9427 22.4964 19.6322 22.4964H19.6482C20.3378 22.4964 20.9991 22.2225 21.4867 21.7349C21.9743 21.2473 22.2482 20.586 22.2482 19.8964C22.2482 19.2068 21.9743 18.5455 21.4867 18.0579C20.9991 17.5703 20.3378 17.2964 19.6482 17.2964H19.6322Z" fill="white"/>
<path d="M11 14.9999C11 14.0451 11.3793 13.1294 12.0544 12.4543C12.7295 11.7792 13.6452 11.3999 14.6 11.3999H35.4C36.3548 11.3999 37.2705 11.7792 37.9456 12.4543C38.6207 13.1294 39 14.0451 39 14.9999V35.7999C39 36.7547 38.6207 37.6704 37.9456 38.3455C37.2705 39.0206 36.3548 39.3999 35.4 39.3999H14.6C13.6452 39.3999 12.7295 39.0206 12.0544 38.3455C11.3793 37.6704 11 36.7547 11 35.7999V14.9999ZM14.6 13.7999C14.2817 13.7999 13.9765 13.9263 13.7515 14.1514C13.5264 14.3764 13.4 14.6816 13.4 14.9999V31.1279L15.7216 28.0879C16.0586 27.6466 16.4932 27.2892 16.9913 27.0437C17.4894 26.7982 18.0375 26.6713 18.5928 26.6729C19.1481 26.6744 19.6955 26.8044 20.1922 27.0526C20.6889 27.3009 21.1214 27.6607 21.456 28.1039L23.4 30.6799C23.5277 30.8491 23.6979 30.9815 23.8933 31.0636C24.0887 31.1456 24.3024 31.1745 24.5126 31.1472C24.7228 31.1199 24.922 31.0374 25.0899 30.9081C25.2579 30.7788 25.3886 30.6073 25.4688 30.4111L28.6336 22.6559C29.7008 20.0399 33.2288 19.6159 34.8832 21.9071L36.6 24.2815V14.9999C36.6 14.6816 36.4736 14.3764 36.2485 14.1514C36.0235 13.9263 35.7183 13.7999 35.4 13.7999H14.6ZM13.4 35.7999C13.4 36.4623 13.9376 36.9999 14.6 36.9999H35.4C35.7183 36.9999 36.0235 36.8735 36.2485 36.6484C36.4736 36.4234 36.6 36.1182 36.6 35.7999V28.3759L32.9392 23.3135C32.8138 23.1401 32.6442 23.0034 32.4482 22.9176C32.2521 22.8317 32.0367 22.7999 31.8242 22.8253C31.6117 22.8508 31.4098 22.9326 31.2396 23.0624C31.0694 23.1921 30.9369 23.365 30.856 23.5631L27.6912 31.3167C26.6352 33.9023 23.168 34.3551 21.4848 32.1263L19.5408 29.5503C19.4292 29.4025 19.285 29.2825 19.1194 29.1998C18.9537 29.117 18.7712 29.0737 18.586 29.0732C18.4008 29.0727 18.2181 29.1151 18.052 29.1971C17.8859 29.279 17.7411 29.3983 17.6288 29.5455L13.6416 34.7679C13.5719 34.8572 13.4907 34.9368 13.4 35.0047V35.7999Z" fill="white"/>
</svg>
