<svg width="51" height="50" viewBox="0 0 51 50" fill="none" xmlns="http://www.w3.org/2000/svg">
<rect x="0.777344" width="50" height="50" rx="10" fill="#F020B5"/>
<path d="M14.1107 40C13.194 40 12.4096 39.6739 11.7573 39.0217C11.1051 38.3694 10.7785 37.5844 10.7773 36.6667V13.3333C10.7773 12.4167 11.104 11.6322 11.7573 10.98C12.4107 10.3278 13.1951 10.0011 14.1107 10H31.069C31.5135 10 31.9373 10.0833 32.3407 10.25C32.744 10.4167 33.0979 10.6528 33.4023 10.9583L39.819 17.375C40.1246 17.6806 40.3607 18.035 40.5273 18.4383C40.694 18.8417 40.7773 19.265 40.7773 19.7083V36.6667C40.7773 37.5833 40.4512 38.3683 39.799 39.0217C39.1468 39.675 38.3618 40.0011 37.444 40H14.1107ZM14.1107 36.6667H37.444V20H32.444C31.9718 20 31.5762 19.84 31.2573 19.52C30.9385 19.2 30.7785 18.8044 30.7773 18.3333V13.3333H14.1107V36.6667ZM32.444 33.3333C32.9162 33.3333 33.3123 33.1733 33.6323 32.8533C33.9523 32.5333 34.1118 32.1378 34.1107 31.6667C34.1096 31.1956 33.9496 30.8 33.6307 30.48C33.3118 30.16 32.9162 30 32.444 30H19.1107C18.6385 30 18.2429 30.16 17.924 30.48C17.6051 30.8 17.4451 31.1956 17.444 31.6667C17.4429 32.1378 17.6029 32.5339 17.924 32.855C18.2451 33.1761 18.6407 33.3356 19.1107 33.3333H32.444ZM24.1107 20C24.5829 20 24.979 19.84 25.299 19.52C25.619 19.2 25.7785 18.8044 25.7773 18.3333C25.7762 17.8622 25.6162 17.4667 25.2973 17.1467C24.9785 16.8267 24.5829 16.6667 24.1107 16.6667H19.1107C18.6385 16.6667 18.2429 16.8267 17.924 17.1467C17.6051 17.4667 17.4451 17.8622 17.444 18.3333C17.4429 18.8044 17.6029 19.2006 17.924 19.5217C18.2451 19.8428 18.6407 20.0022 19.1107 20H24.1107ZM32.444 26.6667C32.9162 26.6667 33.3123 26.5067 33.6323 26.1867C33.9523 25.8667 34.1118 25.4711 34.1107 25C34.1096 24.5289 33.9496 24.1333 33.6307 23.8133C33.3118 23.4933 32.9162 23.3333 32.444 23.3333H19.1107C18.6385 23.3333 18.2429 23.4933 17.924 23.8133C17.6051 24.1333 17.4451 24.5289 17.444 25C17.4429 25.4711 17.6029 25.8672 17.924 26.1883C18.2451 26.5094 18.6407 26.6689 19.1107 26.6667H32.444Z" fill="white"/>
</svg>
