<svg width="31" height="30" viewBox="0 0 31 30" fill="none" xmlns="http://www.w3.org/2000/svg">
<g clip-path="url(#clip0_4117_723)">
<path d="M23.0186 0H12.7061C11.6706 0 10.8311 0.839531 10.8311 1.875H21.1436V9.375H28.6436V24.375H22.0811V26.25H28.6436C29.679 26.25 30.5186 25.4105 30.5186 24.375V7.50047L23.0186 0ZM23.0186 7.5V2.65125L27.8664 7.5H23.0186ZM2.39355 3.75C1.35809 3.75 0.518555 4.58953 0.518555 5.625V28.125C0.518555 29.1605 1.35809 30 2.39355 30H18.3311C19.3665 30 20.2061 29.1605 20.2061 28.125V11.2505L12.7061 3.75H2.39355ZM18.3311 28.125H2.39355V5.625H10.8311V13.125H18.3311V28.125ZM12.7061 11.25V6.40125L17.5539 11.25H12.7061Z" fill="white"/>
</g>
<defs>
<clipPath id="clip0_4117_723">
<rect width="30" height="30" fill="white" transform="translate(0.518555)"/>
</clipPath>
</defs>
</svg>
