<svg width="51" height="50" viewBox="0 0 51 50" fill="none" xmlns="http://www.w3.org/2000/svg">
<rect x="0.518555" width="50" height="50" rx="10" fill="#F020B5"/>
<g clip-path="url(#clip0_4117_721)">
<path d="M33.0186 10H22.7061C21.6706 10 20.8311 10.8395 20.8311 11.875H31.1436V19.375H38.6436V34.375H32.0811V36.25H38.6436C39.679 36.25 40.5186 35.4105 40.5186 34.375V17.5005L33.0186 10ZM33.0186 17.5V12.6513L37.8664 17.5H33.0186ZM12.3936 13.75C11.3581 13.75 10.5186 14.5895 10.5186 15.625V38.125C10.5186 39.1605 11.3581 40 12.3936 40H28.3311C29.3665 40 30.2061 39.1605 30.2061 38.125V21.2505L22.7061 13.75H12.3936ZM28.3311 38.125H12.3936V15.625H20.8311V23.125H28.3311V38.125ZM22.7061 21.25V16.4013L27.5539 21.25H22.7061Z" fill="white"/>
</g>
<defs>
<clipPath id="clip0_4117_721">
<rect width="30" height="30" fill="white" transform="translate(10.5186 10)"/>
</clipPath>
</defs>
</svg>
