<svg width="51" height="50" viewBox="0 0 51 50" fill="none" xmlns="http://www.w3.org/2000/svg">
<rect x="0.258789" width="50" height="50" rx="10" fill="#F020B5"/>
<path d="M19.2588 11L18.2588 12V15.054C18.9235 14.9813 19.5941 14.9813 20.2588 15.054V13H38.2588V23H34.8448L32.2588 25.586V23H28.2048C28.2775 23.6647 28.2775 24.3353 28.2048 25H30.2588V28L31.9668 28.708L35.6728 25H39.2588L40.2588 24V12L39.2588 11H19.2588Z" fill="white"/>
<path fill-rule="evenodd" clip-rule="evenodd" d="M23.0928 29.8581C24.354 29.0325 25.3149 27.8218 25.8328 26.4062C26.3506 24.9905 26.3976 23.4456 25.9669 22.001C25.5361 20.5565 24.6505 19.2896 23.4419 18.3888C22.2333 17.4881 20.7662 17.0015 19.2588 17.0015C17.7514 17.0015 16.2843 17.4881 15.0757 18.3888C13.867 19.2896 12.9815 20.5565 12.5507 22.001C12.1199 23.4456 12.167 24.9905 12.6848 26.4062C13.2026 27.8218 14.1636 29.0325 15.4248 29.8581C13.8801 30.5855 12.5741 31.7372 11.6594 33.1789C10.7447 34.6206 10.2589 36.2927 10.2588 38.0001V39.0001H12.2588V38.0001C12.3202 36.1846 13.0846 34.4639 14.3906 33.2012C15.6967 31.9386 17.4422 31.2328 19.2588 31.2328C21.0754 31.2328 22.8209 31.9386 24.127 33.2012C25.433 34.4639 26.1974 36.1846 26.2588 38.0001V39.0001H28.2588V38.0001C28.2587 36.2927 27.7729 34.6206 26.8582 33.1789C25.9435 31.7372 24.6375 30.5855 23.0928 29.8581ZM19.2588 29.0001C17.9327 29.0001 16.6609 28.4733 15.7233 27.5357C14.7856 26.598 14.2588 25.3262 14.2588 24.0001C14.2588 22.674 14.7856 21.4023 15.7233 20.4646C16.6609 19.5269 17.9327 19.0001 19.2588 19.0001C20.5849 19.0001 21.8566 19.5269 22.7943 20.4646C23.732 21.4023 24.2588 22.674 24.2588 24.0001C24.2588 25.3262 23.732 26.598 22.7943 27.5357C21.8566 28.4733 20.5849 29.0001 19.2588 29.0001Z" fill="white"/>
</svg>
