<svg viewBox="0 0 30 30" fill="none" xmlns="http://www.w3.org/2000/svg">
    <circle cx="15" cy="15" r="15" fill="#64939D"/>
    <path d="M19.7 10.273C19.0887 9.65578 18.3607 9.16635 17.5584 8.83329C16.756 8.50022 15.8954 8.33017 15.0267 8.33304C11.3867 8.33304 8.42003 11.2997 8.42003 14.9397C8.42003 16.1064 8.7267 17.2397 9.30003 18.2397L8.3667 21.6664L11.8667 20.7464C12.8334 21.273 13.92 21.553 15.0267 21.553C18.6667 21.553 21.6334 18.5864 21.6334 14.9464C21.6334 13.1797 20.9467 11.5197 19.7 10.273ZM15.0267 20.433C14.04 20.433 13.0734 20.1664 12.2267 19.6664L12.0267 19.5464L9.9467 20.093L10.5 18.0664L10.3667 17.8597C9.8184 16.9844 9.52732 15.9726 9.5267 14.9397C9.5267 11.913 11.9934 9.44638 15.02 9.44638C16.4867 9.44638 17.8667 10.0197 18.9 11.0597C19.4118 11.569 19.8173 12.1747 20.0931 12.8419C20.3689 13.5091 20.5095 14.2244 20.5067 14.9464C20.52 17.973 18.0534 20.433 15.0267 20.433ZM18.04 16.3264C17.8734 16.2464 17.06 15.8464 16.9134 15.7864C16.76 15.733 16.6534 15.7064 16.54 15.8664C16.4267 16.033 16.1134 16.4064 16.02 16.513C15.9267 16.6264 15.8267 16.6397 15.66 16.553C15.4934 16.473 14.96 16.293 14.3334 15.733C13.84 15.293 13.5134 14.753 13.4134 14.5864C13.32 14.4197 13.4 14.333 13.4867 14.2464C13.56 14.173 13.6534 14.053 13.7334 13.9597C13.8134 13.8664 13.8467 13.793 13.9 13.6864C13.9534 13.573 13.9267 13.4797 13.8867 13.3997C13.8467 13.3197 13.5134 12.5064 13.38 12.173C13.2467 11.853 13.1067 11.893 13.0067 11.8864H12.6867C12.5734 11.8864 12.4 11.9264 12.2467 12.093C12.1 12.2597 11.6734 12.6597 11.6734 13.473C11.6734 14.2864 12.2667 15.073 12.3467 15.1797C12.4267 15.293 13.5134 16.9597 15.1667 17.673C15.56 17.8464 15.8667 17.9464 16.1067 18.0197C16.5 18.1464 16.86 18.1264 17.1467 18.0864C17.4667 18.0397 18.1267 17.6864 18.26 17.2997C18.4 16.913 18.4 16.5864 18.3534 16.513C18.3067 16.4397 18.2067 16.4064 18.04 16.3264Z"
          fill="white"/>
</svg>
