<svg viewBox="0 0 30 30" fill="none" xmlns="http://www.w3.org/2000/svg">
    <circle cx="15" cy="15" r="15" fill="#64939D"/>
    <path d="M21.7775 8.1563C21.689 8.07985 21.5812 8.029 21.4659 8.00924C21.3506 7.98948 21.2322 8.00155 21.1232 8.04415L6.6476 13.7091C6.44245 13.7889 6.26876 13.9331 6.15269 14.1202C6.03662 14.3072 5.98445 14.5269 6.00403 14.7461C6.02361 14.9654 6.11388 15.1723 6.26125 15.3358C6.40863 15.4993 6.60513 15.6105 6.82117 15.6527L10.5719 16.3891V20.5712C10.5711 20.799 10.6388 21.0218 10.7662 21.2106C10.8935 21.3995 11.0747 21.5458 11.2861 21.6305C11.4973 21.7167 11.7295 21.7374 11.9525 21.6899C12.1756 21.6424 12.3792 21.5288 12.5368 21.3641L14.3454 19.4884L17.2147 21.9998C17.4217 22.1834 17.6887 22.285 17.9654 22.2855C18.0866 22.2854 18.2071 22.2663 18.3225 22.2291C18.511 22.1692 18.6806 22.0611 18.8143 21.9153C18.9481 21.7696 19.0413 21.5913 19.0847 21.3983L21.9839 8.78558C22.0099 8.67183 22.0043 8.55317 21.968 8.44231C21.9316 8.33145 21.8658 8.23258 21.7775 8.1563ZM17.4104 10.7277L11.0111 15.3105L7.46831 14.6155L17.4104 10.7277ZM11.7147 20.5712V17.1798L13.4854 18.7326L11.7147 20.5712ZM17.9668 21.1426L12.0611 15.9641L20.5611 9.872L17.9668 21.1426Z"
          fill="white"/>
</svg>
