<svg width="51" height="50" viewBox="0 0 51 50" fill="none" xmlns="http://www.w3.org/2000/svg">
<rect x="0.518555" width="50" height="50" rx="10" fill="#F020B5"/>
<path d="M19.8429 23.1622V28.027M31.1942 23.1622V28.027M10.5186 25.5946H40.5186M10.5186 21.5405C10.5186 20.2503 11.0311 19.0129 11.9434 18.1006C12.8558 17.1882 14.0932 16.6757 15.3834 16.6757H35.6537C36.9439 16.6757 38.1813 17.1882 39.0937 18.1006C40.006 19.0129 40.5186 20.2503 40.5186 21.5405V33.7027C40.5186 34.9929 40.006 36.2303 39.0937 37.1427C38.1813 38.055 36.9439 38.5676 35.6537 38.5676H15.3834C14.0932 38.5676 12.8558 38.055 11.9434 37.1427C11.0311 36.2303 10.5186 34.9929 10.5186 33.7027V21.5405ZM19.0321 14.2432C19.0321 13.3831 19.3738 12.5581 19.982 11.9499C20.5902 11.3417 21.4151 11 22.2753 11H28.7618C29.622 11 30.4469 11.3417 31.0551 11.9499C31.6633 12.5581 32.005 13.3831 32.005 14.2432V16.6757H19.0321V14.2432Z" stroke="white" stroke-width="2.43243" stroke-linecap="round" stroke-linejoin="round"/>
</svg>
