<svg width="40" height="40" viewBox="0 0 40 40" fill="none" xmlns="http://www.w3.org/2000/svg">
    <circle cx="20" cy="20" r="20" fill="white"/>
    <path d="M20.0001 10C14.4861 10 10.0001 14.486 10.0001 20C10.0001 22.016 10.6031 23.905 11.6421 25.492L11.0001 29L14.6421 27.358C16.1481 28.397 17.9841 29 20.0001 29C25.5141 29 30.0001 24.514 30.0001 19C30.0001 13.486 25.5141 9 20.0001 9V10ZM24.9661 24.232C24.6341 25.043 23.4691 25.592 22.8461 25.656C22.3151 25.711 21.6051 25.547 21.0561 25.337C19.6461 24.811 18.2361 23.682 17.1191 22.016C15.8901 20.17 15.3411 18.57 15.3051 18.498C15.2691 18.426 14.2881 16.482 14.2881 15.48C14.2881 14.478 14.9071 13.918 15.1531 13.672C15.3991 13.426 15.8451 13.344 16.1551 13.344C16.4641 13.344 16.7111 13.353 16.9111 13.371C17.2661 13.398 17.5221 14.478 17.6871 14.833C17.8521 15.188 18.5261 16.896 18.5981 17.02C18.6701 17.142 18.7421 17.342 18.6701 17.52C18.5981 17.707 18.5261 17.752 18.3251 17.975C18.1241 18.198 17.9911 18.311 17.8681 18.45C17.7451 18.589 17.6131 18.754 17.7781 19.049C17.9431 19.344 18.5801 20.373 19.4971 21.226C20.6721 22.306 21.5711 22.652 21.8901 22.801C22.2081 22.95 22.3731 22.905 22.5611 22.695C22.8071 22.422 23.0801 22.003 23.2901 21.721C23.5361 21.393 23.8311 21.311 24.1631 21.402C24.4951 21.492 25.5921 22.027 25.8831 22.182C26.1731 22.337 26.3621 22.418 26.4261 22.541C26.4901 22.664 26.4901 23.423 26.2441 23.751C25.9981 24.079 25.2981 24.469 24.9661 24.232Z" fill="#64939D"/>
</svg>